/* XPM */
static char * flaa_xpm[] = {
"64 64 3 1",
" 	c None",
".	c #EAFFFA",
"+	c #000000",
"................................................................",
"................................................................",
"................................................................",
"................................................................",
"................................................................",
"................................................................",
"................................................................",
"................................................................",
"................................................................",
"................................................................",
"................................................................",
"....++..................................................++......",
"....++..................................................++......",
".....++................................................++.......",
".....++................................................++.......",
"......++..............................................++........",
"......++..............................................++........",
".......++............................................++.........",
".......++............................................++.........",
"........++..........................................++..........",
"........++..........................................++..........",
".........++.........................................++..........",
".........++........................................++...........",
"..........++......................................++............",
"..........++......................................++............",
"...........++.....................................++............",
"...........++.....................................++............",
"............++...................................++.............",
"............++..................................++..............",
".............++.................................++..............",
".............++................................++...............",
"..............++...............................++...............",
"...............++.............................++................",
"...............++.............................++................",
"................++...........................++.................",
"................++...........................++.................",
".................++.........................++..................",
"..................++.......................++...................",
"..................++.......................++...................",
"..................++......................++....................",
"...................++....................++.....................",
"....................++...................++.....................",
".....................++.................++......................",
".....................++.................++......................",
"......................++...............++.......................",
".......................++.............++........................",
"........................++...........+++........................",
".........................++..........++.........................",
"..........................++........++..........................",
"...........................++.....+++...........................",
"............................++...+++............................",
".............................++++++.............................",
"..............................+++...............................",
"...............................+................................",
"................................................................",
"................................................................",
"................................................................",
"................................................................",
"................................................................",
"................................................................",
"................................................................",
"................................................................",
"................................................................",
"................................................................"
};
